<?xml version="1.0" encoding="UTF-8" standalone="no"?>
<!-- Created with Inkscape (http://www.inkscape.org/) -->

<svg
   version="1.1"
   id="svg254"
   width="880"
   height="880"
   viewBox="0 0 880 880"
   sodipodi:docname="mother-mary-color-pdv.svg"
   inkscape:version="1.2 (dc2aedaf03, 2022-05-15)"
   xmlns:inkscape="http://www.inkscape.org/namespaces/inkscape"
   xmlns:sodipodi="http://sodipodi.sourceforge.net/DTD/sodipodi-0.dtd"
   xmlns="http://www.w3.org/2000/svg"
   xmlns:svg="http://www.w3.org/2000/svg">
  <defs
     id="defs258">
    <clipPath
       clipPathUnits="userSpaceOnUse"
       id="clipPath270">
      <path
         d="M 0,660 H 660 V 0 H 0 Z"
         id="path268" />
    </clipPath>
  </defs>
  <sodipodi:namedview
     id="namedview256"
     pagecolor="#ffffff"
     bordercolor="#000000"
     borderopacity="0.25"
     inkscape:showpageshadow="2"
     inkscape:pageopacity="0.0"
     inkscape:pagecheckerboard="0"
     inkscape:deskcolor="#d1d1d1"
     showgrid="false"
     inkscape:zoom="0.95113636"
     inkscape:cx="441.05137"
     inkscape:cy="440.52569"
     inkscape:window-width="1920"
     inkscape:window-height="1017"
     inkscape:window-x="-8"
     inkscape:window-y="-8"
     inkscape:window-maximized="1"
     inkscape:current-layer="g262">
    <inkscape:page
       x="0"
       y="0"
       id="page260"
       width="880"
       height="880" />
  </sodipodi:namedview>
  <g
     id="g262"
     inkscape:groupmode="layer"
     inkscape:label="Page 1"
     transform="matrix(1.3333333,0,0,-1.3333333,0,880)">
    <g
       id="g264">
      <g
         id="g266"
         clip-path="url(#clipPath270)">
        <g
           id="g272"
           transform="translate(496.8936,238.4834)">
          <path
             d="M 0,0 C 3.643,4.359 7.108,8.838 10.39,13.422 L -1.128,5.57 Z"
             style="fill:#a5eb00;fill-opacity:1;fill-rule:nonzero;stroke:none"
             id="path274" />
        </g>
        <g
           id="g276"
           transform="translate(549.0605,382.6909)">
          <path
             d="M 0,0 C 0,14.885 -1.435,29.549 -4.237,43.835 L -1.043,-21.87 C -0.352,-14.646 0,-7.351 0,0"
             style="fill:#fce200;fill-opacity:1;fill-rule:nonzero;stroke:none"
             id="path278" />
        </g>
        <g
           id="g280"
           transform="translate(445.6914,526.7446)">
          <path
             d="M 0,0 14.729,-4.781 15.654,19.08 C 27.9,8.732 38.966,-2.967 48.627,-15.783 L 67.475,-21.9 C 58.877,-8.627 48.816,3.836 37.369,15.283 30.51,22.144 23.283,28.504 15.737,34.353 L 5.326,19.202 C 3.667,13.631 1.863,7.008 0,0"
             style="fill:#ff6500;fill-opacity:1;fill-rule:nonzero;stroke:none"
             id="path282" />
        </g>
        <g
           id="g284"
           transform="translate(467.7393,329.7002)">
          <path
             d="M 0,0 C 0.86,1.471 1.693,2.926 2.495,4.361 L -5.823,1.635 Z"
             style="fill:#eff800;fill-opacity:1;fill-rule:nonzero;stroke:none"
             id="path286" />
        </g>
        <g
           id="g288"
           transform="translate(522.1816,314.4307)">
          <path
             d="M 0,0 C 1.232,11.93 2.559,26.498 3.013,37.654 L -36.832,24.588 c -0.209,-4.76 -0.752,-9.404 -1.558,-13.82 z"
             style="fill:#eff800;fill-opacity:1;fill-rule:nonzero;stroke:none"
             id="path290" />
        </g>
        <g
           id="g292"
           transform="translate(525.7275,313.4365)">
          <path
             d="m 0,0 11.478,-3.221 c 5.371,15.868 8.966,32.385 10.683,49.311 L 9.806,42.039 C 7.95,27.523 4.628,13.461 0,0"
             style="fill:#eff800;fill-opacity:1;fill-rule:nonzero;stroke:none"
             id="path294" />
        </g>
        <g
           id="g296"
           transform="translate(520.6133,300.04)">
          <path
             d="M 0,0 C 0.435,3.807 0.992,8.811 1.568,14.391 L -36.821,25.158 C -38.43,16.34 -41.082,8.439 -44.198,2.381 l 0.597,-0.307 c -0.67,-1.4 -1.368,-2.844 -2.088,-4.318 l 20.841,-53.742 11.518,7.851 c 12.855,17.961 22.904,37.58 29.922,58.311 L 5.114,13.396 C 3.555,8.861 1.851,4.393 0,0"
             style="fill:#def500;fill-opacity:1;fill-rule:nonzero;stroke:none"
             id="path298" />
        </g>
        <g
           id="g300"
           transform="translate(464.5801,324.4639)">
          <path
             d="M 0,0 C 1.096,1.764 2.147,3.51 3.159,5.236 L -2.664,6.871 Z"
             style="fill:#def500;fill-opacity:1;fill-rule:nonzero;stroke:none"
             id="path302" />
        </g>
        <g
           id="g304"
           transform="translate(453.0645,552.479)">
          <path
             d="M 0,0 C -0.65,-1.948 -1.336,-4.145 -2.047,-6.532 L 8.364,8.618 C 0.307,14.863 -8.117,20.523 -16.854,25.571 l 0.898,-14.497 C -10.467,7.619 -5.141,3.926 0,0"
             style="fill:#ff5a00;fill-opacity:1;fill-rule:nonzero;stroke:none"
             id="path306" />
        </g>
        <g
           id="g308"
           transform="translate(478.0156,438.0376)">
          <path
             d="m 0,0 c -6.826,2.768 -14.083,5.711 -20.498,9.205 l 0.327,8.409 -25.86,4.644 14.393,-62.017 c 0.826,1.031 1.572,1.854 2.238,2.409 5.9,4.916 13.024,-2.949 16.123,-13.109 4.129,-13.537 7.386,-24.05 -2.928,-55.789 l 0.105,-0.455 19.815,26.217 c 0.656,1.547 1.264,3.023 1.819,4.409 0.112,-0.527 0.214,-1.056 0.316,-1.584 l 31.349,41.479 c -0.541,13.27 -1.187,29.125 -1.785,43.816 L 23.344,9.801 C 23.209,2.526 23.014,-4.641 22.73,-11.18 16.947,-6.874 8.853,-3.59 0,0"
             style="fill:#ffe100;fill-opacity:1;fill-rule:nonzero;stroke:none"
             id="path310" />
        </g>
        <g
           id="g312"
           transform="translate(531.9316,430.1802)">
          <path
             d="M 0,0 -1.318,-7.952 10.396,7.55 C 10.156,8.514 9.908,9.476 9.654,10.435 L -3.34,12.77 C -2.102,8.564 -0.982,4.308 0,0"
             style="fill:#ffe100;fill-opacity:1;fill-rule:nonzero;stroke:none"
             id="path314" />
        </g>
        <g
           id="g316"
           transform="translate(522.166,371.2905)">
          <path
             d="m 0,0 c -1.501,1.219 -3.537,2.389 -5.845,3.5 -0.202,4.93 -0.61,14.913 -1.106,27.065 l -31.35,-41.479 c 1.371,-7.12 1.791,-14.362 1.485,-21.358 l 39.844,13.066 c 0.054,1.321 0.095,2.594 0.123,3.809 L 12.85,42.318 C 14.32,32.221 15.096,21.9 15.096,11.4 c 0,-9.218 -0.589,-18.301 -1.729,-27.215 l 12.356,4.051 c 0.044,0.431 0.087,0.863 0.129,1.294 L 22.657,55.235 C 21.92,58.997 21.09,62.733 20.162,66.44 L 8.447,50.938 Z"
             style="fill:#fff200;fill-opacity:1;fill-rule:nonzero;stroke:none"
             id="path318" />
        </g>
        <g
           id="g320"
           transform="translate(470.2344,334.0615)">
          <path
             d="M 0,0 C 4.879,8.746 8.668,16.822 11.496,23.49 L -8.318,-2.727 Z"
             style="fill:#fff200;fill-opacity:1;fill-rule:nonzero;stroke:none"
             id="path322" />
        </g>
        <g
           id="g324"
           transform="translate(458.3984,469.9136)">
          <path
             d="m 0,0 -26.414,-9.618 25.86,-4.644 z"
             style="fill:#ffb500;fill-opacity:1;fill-rule:nonzero;stroke:none"
             id="path326" />
        </g>
        <g
           id="g328"
           transform="translate(501.3594,447.8384)">
          <path
             d="M 0,0 12.07,-2.167 C 11.445,13.156 10.873,27.209 10.525,35.733 17.424,22.917 23.046,9.318 27.232,-4.889 L 40.227,-7.223 C 35.434,10.926 28.381,28.352 19.217,44.716 L 0.249,37.809 C 0.281,26.952 0.245,13.295 0,0"
             style="fill:#ffb500;fill-opacity:1;fill-rule:nonzero;stroke:none"
             id="path330" />
        </g>
        <g
           id="g332"
           transform="translate(431.9844,460.2954)">
          <path
             d="m 0,0 26.414,9.618 2.022,52.05 -14.729,4.781 C 10.059,52.724 6.186,37.523 2.742,25.847 Z"
             style="fill:#ff9b00;fill-opacity:1;fill-rule:nonzero;stroke:none"
             id="path334" />
        </g>
        <g
           id="g336"
           transform="translate(501.5137,500.8306)">
          <path
             d="m 0,0 c 0.037,-3.778 0.076,-9.031 0.095,-15.183 l 18.967,6.907 c -2.334,4.167 -4.804,8.266 -7.41,12.29 L -7.195,10.131 C -4.703,6.826 -2.301,3.45 0,0"
             style="fill:#ff9b00;fill-opacity:1;fill-rule:nonzero;stroke:none"
             id="path338" />
        </g>
        <g
           id="g340"
           transform="translate(453.2441,250.208)">
          <path
             d="M 0,0 42.522,-6.154 21.68,47.588 C 15.533,35.014 7.686,20.031 0.754,7.049 Z"
             style="fill:#e5f300;fill-opacity:1;fill-rule:nonzero;stroke:none"
             id="path342" />
        </g>
        <g
           id="g344"
           transform="translate(460.5068,318.1494)">
          <path
             d="M 0,0 C 1.417,2.119 2.776,4.228 4.073,6.314 L 1.409,13.186 Z"
             style="fill:#e5f300;fill-opacity:1;fill-rule:nonzero;stroke:none"
             id="path346" />
        </g>
        <g
           id="g348"
           transform="translate(438.4082,188.6201)">
          <path
             d="M 0,0 C 0.664,0.395 1.326,0.793 1.986,1.193 L 0.01,0.885 Z"
             style="fill:#accf00;fill-opacity:1;fill-rule:nonzero;stroke:none"
             id="path350" />
        </g>
        <g
           id="g352"
           transform="translate(453.2441,250.208)">
          <path
             d="m 0,0 28.639,-28.016 c 0.392,0.387 0.787,0.774 1.177,1.164 4.864,4.864 9.475,9.913 13.834,15.127 l -1.128,5.571 z"
             style="fill:#baea00;fill-opacity:1;fill-rule:nonzero;stroke:none"
             id="path354" />
        </g>
        <g
           id="g356"
           transform="translate(438.418,189.5049)">
          <path
             d="M 0,0 1.977,0.309 C 16.85,9.342 30.77,20.172 43.465,32.688 L 14.826,60.703 Z"
             style="fill:#bde200;fill-opacity:1;fill-rule:nonzero;stroke:none"
             id="path358" />
        </g>
        <g
           id="g360"
           transform="translate(461.8105,331.79)">
          <path
             d="M 0,0 C -0.043,-0.129 -0.085,-0.26 -0.127,-0.391 L 0.105,-0.455 Z"
             style="fill:#ffdd00;fill-opacity:1;fill-rule:nonzero;stroke:none"
             id="path362" />
        </g>
        <g
           id="g364"
           transform="translate(422.8545,445.8306)">
          <path
             d="M 0,0 C 1.737,-2.463 3.133,-4.817 4.067,-6.984 2.454,-7.967 -0.77,-9.45 -7.212,-11.427 l -3.954,-6.264 c 9.374,2.541 15.544,4.836 18.821,7.255 0.81,-4.577 -2.54,-11.111 -2.54,-11.111 C 3.932,-24.7 -6.92,-28.381 -20.161,-31.944 l -5.053,-8.005 c 13.364,2.383 27.568,4.245 28.69,1.606 0.417,-0.98 0.939,-2.498 1.266,-4.285 -0.837,-0.465 -1.882,-1.077 -3.228,-1.866 -6.09,-3.576 -16.281,-9.56 -26.057,-12.069 -2.452,-0.628 -6.823,-1.151 -12.087,-1.474 l -1.256,-1.99 c 6.201,0.334 11.317,0.915 13.83,1.56 10.046,2.577 20.385,8.649 26.565,12.277 0.856,0.502 1.721,1.01 2.501,1.456 0.122,-1.743 -0.007,-3.618 -0.595,-5.443 -1.513,-2.749 -4.053,-7.502 -12.817,-12.255 -7.15,-4.054 -20.391,-6.649 -35.235,-6.707 l -8.671,-13.739 c 0.166,-0.068 0.331,-0.14 0.498,-0.206 l 0.225,0.563 c 0.611,-0.245 1.236,-0.477 1.875,-0.698 l -0.207,-0.58 c 1.562,-0.554 3.19,-1.044 4.841,-1.457 l 0.168,0.672 c 0.642,-0.145 1.294,-0.281 1.953,-0.406 l -0.153,-0.72 c 1.616,-0.343 3.288,-0.623 4.972,-0.833 l 0.107,0.861 c 0.655,-0.063 1.316,-0.114 1.981,-0.154 l -0.084,-0.919 c 1.648,-0.153 3.337,-0.239 5.025,-0.26 l 0.012,1.067 c 0.658,0.01 1.318,0.035 1.98,0.067 l 0.019,-1.126 c 1.672,0.029 3.36,0.123 5.02,0.279 l -0.12,1.274 c 0.651,0.083 1.301,0.173 1.954,0.275 l 0.168,-1.328 c 1.756,0.223 3.43,0.509 4.978,0.851 l -0.316,1.428 c 0.637,0.15 1.272,0.31 1.906,0.481 l 0.408,-1.41 c 1.57,0.455 3.189,1.11 4.814,1.947 l -0.491,0.956 c 0.628,0.233 1.249,0.487 1.862,0.761 l 0.428,-0.721 c 1.378,0.818 2.794,1.782 4.207,2.866 l -0.172,0.225 c 0.572,0.357 1.136,0.73 1.693,1.118 l 0.065,-0.078 c 0.278,0.23 0.563,0.487 0.844,0.729 11.842,8.644 20.189,23.335 25.371,29.802 L 9.13,14.465 Z"
             style="fill:#ffdd00;fill-opacity:1;fill-rule:nonzero;stroke:none"
             id="path366" />
        </g>
        <g
           id="g368"
           transform="translate(406.6064,256.0752)">
          <path
             d="m 0,0 c -4.13,1.777 -8.295,-1.326 -11.865,-3.834 l 4.172,-0.145 C -5.424,-1.586 -2.767,0.498 0,0"
             style="fill:#fadc00;fill-opacity:1;fill-rule:nonzero;stroke:none"
             id="path370" />
        </g>
        <g
           id="g372"
           transform="translate(450.2754,250.3115)">
          <path
             d="M 0,0 2.969,-0.104 1.162,2.164 C 0.771,1.434 0.382,0.711 0,0"
             style="fill:#fadc00;fill-opacity:1;fill-rule:nonzero;stroke:none"
             id="path374" />
        </g>
        <g
           id="g376"
           transform="translate(345.4561,265.1631)">
          <path
             d="m 0,0 c 2.957,1.293 6.133,2.385 9.341,3.463 3.22,1.098 6.447,2.086 9.812,3.404 l 0.641,0.256 0.68,0.314 c 0.119,0.057 0.212,0.094 0.352,0.17 l 0.423,0.235 c 0.256,0.162 0.506,0.328 0.72,0.5 0.869,0.681 1.531,1.404 2.129,2.16 1.186,1.504 2.102,3.115 2.821,4.822 0.673,1.717 1.237,3.526 1.185,5.459 -0.04,0.953 -0.238,1.955 -0.768,2.785 -0.56,0.817 -1.402,1.346 -2.258,1.512 0.733,-0.486 1.266,-1.158 1.457,-1.894 0.2,-0.735 0.136,-1.506 -0.051,-2.256 -0.39,-1.498 -1.168,-2.936 -2.101,-4.241 -0.918,-1.31 -1.983,-2.539 -3.12,-3.566 -0.571,-0.502 -1.165,-0.965 -1.706,-1.266 -0.135,-0.08 -0.261,-0.127 -0.376,-0.179 L 18.782,11.557 C 18.444,11.457 18.085,11.35 17.68,11.248 14.505,10.457 11.074,9.719 7.725,8.807 4.98,8.066 2.238,7.223 -0.497,6.16 L -2.382,-1.121 C -1.623,-0.727 -0.814,-0.355 0,0"
             style="fill:#fadc00;fill-opacity:1;fill-rule:nonzero;stroke:none"
             id="path378" />
        </g>
        <g
           id="g380"
           transform="translate(451.4375,252.4756)">
          <path
             d="M 0,0 1.807,-2.268 2.56,4.781 C 1.69,3.152 0.836,1.557 0,0"
             style="fill:#ffec00;fill-opacity:1;fill-rule:nonzero;stroke:none"
             id="path382" />
        </g>
        <g
           id="g384"
           transform="translate(461.6836,331.3994)">
          <path
             d="m 0,0 c -2.257,-6.904 -5.147,-14.803 -8.807,-23.951 2.719,3.572 5.258,7.154 7.63,10.701 l 1.409,13.186 z"
             style="fill:#ffec00;fill-opacity:1;fill-rule:nonzero;stroke:none"
             id="path386" />
        </g>
        <g
           id="g388"
           transform="translate(437.1084,563.5532)">
          <path
             d="m 0,0 -0.898,14.497 c -7.479,4.323 -15.187,8.2 -23.091,11.616 l -7.969,-9.585 C -20.8,11.908 -10.116,6.366 0,0"
             style="fill:#ff6800;fill-opacity:1;fill-rule:nonzero;stroke:none"
             id="path390" />
        </g>
        <g
           id="g392"
           transform="translate(395.9111,568.9692)">
          <path
             d="m 0,0 -41.976,-50.487 25.448,3.087 C -11.206,-32.503 -5.019,-13.654 0,0"
             style="fill:#ff6800;fill-opacity:1;fill-rule:nonzero;stroke:none"
             id="path394" />
        </g>
        <g
           id="g396"
           transform="translate(415.5156,210.1123)">
          <path
             d="m 0,0 c -1.356,-1.01 -2.786,-1.896 -4.266,-2.676 l 0.305,-0.201 C -2.572,-2.016 -1.245,-1.061 0,0"
             style="fill:#dcdf00;fill-opacity:1;fill-rule:nonzero;stroke:none"
             id="path398" />
        </g>
        <g
           id="g400"
           transform="translate(392.1641,222.4033)">
          <path
             d="m 0,0 c 2.459,3.686 7.129,26.299 7.129,26.299 0,0 -7.19,-11.916 -20.215,-20.033 L -1.37,-1.467 C -0.77,-0.951 -0.304,-0.457 0,0"
             style="fill:#dcdf00;fill-opacity:1;fill-rule:nonzero;stroke:none"
             id="path402" />
        </g>
        <g
           id="g404"
           transform="translate(393.6387,246.3193)">
          <path
             d="M 0,0 C 1.215,0.812 3.059,3.441 5.274,5.777 L 1.102,5.922 C -0.265,4.961 -1.546,4.088 -2.703,3.613 c -4.179,-1.72 -27.038,-4.425 -33.919,-4.425 -1.051,0 -1.99,-0.151 -2.845,-0.399 l 14.202,-9.375 C -14.097,-6.764 -1.577,-1.057 0,0"
             style="fill:#dcdf00;fill-opacity:1;fill-rule:nonzero;stroke:none"
             id="path406" />
        </g>
        <g
           id="g408"
           transform="translate(437.8008,227.3193)">
          <path
             d="M 0,0 C -3.447,-6.404 -9.291,-15.957 -21.268,-23.371 L 0.617,-37.814 15.443,22.889 12.475,22.992 C 6.341,11.59 1.45,2.691 0,0"
             style="fill:#dcdf00;fill-opacity:1;fill-rule:nonzero;stroke:none"
             id="path410" />
        </g>
        <g
           id="g412"
           transform="translate(353.2695,415.062)">
          <path
             d="m 0,0 c 5.505,1.21 11.392,2.45 17.38,3.712 17.538,3.695 31.093,6.669 41.039,9.365 l 3.954,6.265 C 60.547,18.781 58.463,18.181 56.082,17.541 44.828,14.519 30.359,11.47 16.366,8.521 -0.378,4.993 -16.333,1.631 -25.746,-1.461 L -20.5,-8.795 C -14.817,-5.775 -6.711,-2.514 0,0"
             style="fill:#ffba00;fill-opacity:1;fill-rule:nonzero;stroke:none"
             id="path414" />
        </g>
        <g
           id="g416"
           transform="translate(414.5508,455.8638)">
          <path
             d="m 0,0 c 3.185,-3.418 6.036,-6.818 8.304,-10.033 l 9.13,14.465 z"
             style="fill:#ffba00;fill-opacity:1;fill-rule:nonzero;stroke:none"
             id="path418" />
        </g>
        <g
           id="g420"
           transform="translate(378.7842,376.6899)">
          <path
             d="m 0,0 h -0.073 c -3.385,0 -6.63,0.139 -9.7,0.391 -2.475,0.301 -4.955,0.606 -7.219,0.858 -4.206,0.679 -7.853,1.616 -10.736,2.765 l 3.803,-5.316 c 0.099,-0.025 0.197,-0.052 0.295,-0.077 0.318,-0.31 0.648,-0.627 0.989,-0.952 l -0.321,-0.316 2.919,-4.08 c 0.028,-0.023 0.057,-0.048 0.086,-0.072 l 0.918,1.129 c 0.628,-0.572 1.144,-1.044 1.455,-1.337 l -0.769,-1.037 c 1.353,-1.001 2.778,-1.94 4.237,-2.792 l 0.397,0.682 c 0.548,-0.367 1.11,-0.723 1.697,-1.062 l -0.319,-0.606 c 1.321,-0.696 2.699,-1.336 4.104,-1.915 L 0.434,0.002 C 0.289,0.002 0.145,0 0,0"
             style="fill:#ffba00;fill-opacity:1;fill-rule:nonzero;stroke:none"
             id="path422" />
        </g>
        <g
           id="g424"
           transform="translate(335.9834,401.7739)">
          <path
             d="m 0,0 11.296,-15.79 c 0.147,0.703 0.514,1.35 1.184,1.839 6.559,-1.686 16.215,-2.314 25.447,-2.313 3.849,0 7.62,0.109 11.058,0.293 l 1.256,1.991 c -11.614,-0.712 -27.57,-0.451 -36.818,1.795 0.077,0.096 0.162,0.184 0.235,0.284 6.227,8.52 17.37,9.832 31.462,12.782 4.436,0.928 10.399,2.133 16.537,3.226 l 5.053,8.005 C 46.927,6.789 21.809,1.728 15.625,-0.923 10.561,-3.093 4.948,-1.652 0,0"
             style="fill:#ffba00;fill-opacity:1;fill-rule:nonzero;stroke:none"
             id="path426" />
        </g>
        <g
           id="g428"
           transform="translate(383.5918,587.6743)">
          <path
             d="m 0,0 c -6.565,-7.756 -22.195,-26.414 -32.887,-40.729 l 3.231,-28.463 41.975,50.487 c 1.902,5.173 3.635,9.601 5.09,12.785 1.391,-0.542 2.773,-1.102 4.15,-1.673 l 7.968,9.585 C 7.703,11.424 -15.613,17.347 -39.72,19.469 L -38.358,7.476 C -25.186,6.148 -12.364,3.617 0,0"
             style="fill:#fd5c00;fill-opacity:1;fill-rule:nonzero;stroke:none"
             id="path430" />
        </g>
        <g
           id="g432"
           transform="translate(429.584,183.6494)">
          <path
             d="m 0,0 c 2.976,1.588 5.918,3.246 8.824,4.971 l 0.01,0.884 z"
             style="fill:#c1b600;fill-opacity:1;fill-rule:nonzero;stroke:none"
             id="path434" />
        </g>
        <g
           id="g436"
           transform="translate(353.9717,192.6846)">
          <path
             d="m 0,0 c 11.155,-5.35 25.172,-9.443 42.894,-10.625 -17.527,-6.408 -36.123,-10.572 -55.437,-12.166 -4.792,5.5 -12.353,14.494 -19.196,23.984 l -2.705,0.104 12.112,-36.486 C 12.356,-34 45.681,-25.002 75.612,-9.035 l 8.834,5.855 z"
             style="fill:#ccb700;fill-opacity:1;fill-rule:nonzero;stroke:none"
             id="path438" />
        </g>
        <g
           id="g440"
           transform="translate(319.5273,193.9814)">
          <path
             d="M 0,0 2.705,-0.104 C 2.086,0.756 1.472,1.619 0.867,2.484 Z"
             style="fill:#ddc600;fill-opacity:1;fill-rule:nonzero;stroke:none"
             id="path442" />
        </g>
        <g
           id="g444"
           transform="translate(402.5059,197.4873)">
          <path
             d="m 0,0 c -12.346,-2.279 -33.592,-3.744 -44.999,9.676 -3.363,3.957 -6.546,7.31 -9.678,10.306 0.409,0.166 0.815,0.334 1.208,0.51 0.618,-0.301 1.291,-0.617 2.012,-0.941 0.132,-0.1 0.267,-0.192 0.395,-0.295 1.135,-0.879 2.26,-1.895 3.37,-2.959 2.226,-2.123 4.414,-4.408 6.774,-6.598 1.174,-1.095 2.409,-2.168 3.744,-3.166 l 1.021,-0.736 1.098,-0.676 c 0.343,-0.24 0.805,-0.396 1.209,-0.592 0.416,-0.177 0.837,-0.384 1.242,-0.478 3.269,-1.004 6.474,-1.297 9.685,-1.463 6.405,-0.188 12.789,0.396 18.96,1.93 4.558,1.089 9.038,2.769 13.008,5.23 L 8.744,9.949 C 4.7,7.816 0.263,6.49 -4.215,5.719 c -6.122,-1.106 -12.398,-1.26 -18.53,-0.68 -3.04,0.348 -6.123,0.871 -8.81,1.9 -0.36,0.104 -0.63,0.282 -0.925,0.43 -0.292,0.17 -0.59,0.26 -0.878,0.496 l -0.871,0.617 -0.848,0.702 c -1.121,0.959 -2.2,2.019 -3.25,3.14 -1.164,1.227 -2.299,2.508 -3.446,3.805 2.05,-0.498 4.127,-0.832 6.115,-0.881 8.617,-0.217 19.687,4.539 23.946,8.201 l -11.716,7.733 c -0.384,-0.241 -0.774,-0.477 -1.17,-0.709 -12.738,-7.508 -26.737,-3.565 -36.351,-1.182 -3.214,1.707 -6.099,3.742 -8.573,5.775 L -76.352,15.49 C -69.864,8.693 -60.98,1.164 -48.534,-4.803 L 35.912,-7.982 14.027,6.461 C 10.067,4.01 5.436,1.793 0,0"
             style="fill:#ddc600;fill-opacity:1;fill-rule:nonzero;stroke:none"
             id="path446" />
        </g>
        <g
           id="g448"
           transform="translate(353.083,232.2334)">
          <path
             d="M 0,0 C 3.256,-0.176 9.063,1.369 15.291,3.5 L 1.089,12.875 c -4.747,-1.387 -6.814,-5.879 -9.938,-5.254 -2.129,0.426 -4.974,1.336 -7.889,2.334 L -18.345,5.35 C -15.531,3.941 -7.582,0.41 0,0"
             style="fill:#ddc600;fill-opacity:1;fill-rule:nonzero;stroke:none"
             id="path450" />
        </g>
        <g
           id="g452"
           transform="translate(379.3828,521.5688)">
          <path
             d="M 0,0 -25.447,-3.087 -6.591,-17.145 C -4.708,-12.856 -2.445,-6.848 0,0"
             style="fill:#ff8500;fill-opacity:1;fill-rule:nonzero;stroke:none"
             id="path454" />
        </g>
        <g
           id="g456"
           transform="translate(431.4043,475.6929)">
          <path
             d="m 0,0 c -13.499,16.521 -26.663,18.914 -38.547,21.067 -5.163,0.937 -9.952,1.81 -14.802,3.741 L 0.58,-15.397 3.322,10.449 C 2.157,6.499 1.041,2.949 0,0"
             style="fill:#ff8500;fill-opacity:1;fill-rule:nonzero;stroke:none"
             id="path458" />
        </g>
        <g
           id="g460"
           transform="translate(353.8105,496.2417)">
          <path
             d="m 0,0 c 11.77,-10.367 22.472,-13.319 32.087,-15.188 8.472,-6.117 19.832,-15.718 28.653,-25.19 l 17.434,4.432 -53.929,40.205 c -1.9,0.756 -3.809,1.675 -5.755,2.824 0.16,0.352 0.326,0.722 0.492,1.1 L 0.125,22.24 -6.925,6.198 C -4.758,4.229 -2.452,2.16 0,0"
             style="fill:#ff9400;fill-opacity:1;fill-rule:nonzero;stroke:none"
             id="path462" />
        </g>
        <g
           id="g464"
           transform="translate(302.8179,595.2046)">
          <path
             d="m 0,0 c 6.88,0.672 13.852,1.025 20.907,1.025 7.26,0 14.434,-0.367 21.508,-1.08 l -1.361,11.994 c -6.66,0.585 -13.381,0.884 -20.147,0.884 -25.359,0 -50.079,-4.161 -73.379,-12.159 l 30.049,-22.448 C -13.691,-13.457 -5.51,-5.436 0,0"
             style="fill:#fa4f00;fill-opacity:1;fill-rule:nonzero;stroke:none"
             id="path466" />
        </g>
        <g
           id="g468"
           transform="translate(340.3926,531.3052)">
          <path
             d="M 0,0 C -9.76,9.006 -16.91,14.676 -26.54,17.121 L 13.543,-12.823 10.313,15.64 C 5.332,8.971 1.422,3.243 0,0"
             style="fill:#fa4f00;fill-opacity:1;fill-rule:nonzero;stroke:none"
             id="path470" />
        </g>
        <g
           id="g472"
           transform="translate(260.3916,583.3618)">
          <path
             d="m 0,0 0.592,0.363 -0.493,-0.601 -24.209,-29.506 0.36,-28.411 c 5.168,0.651 11.651,1.574 19.862,2.768 17.252,2.51 36.809,5.367 46.227,5.119 9.92,-0.25 14.736,-3.381 26.837,-14.554 L 93.544,-64.88 53.46,-34.936 c -3.226,0.82 -6.729,1.277 -10.703,1.376 -10.83,0.274 -30.263,-2.554 -49.05,-5.287 -2.22,-0.322 -4.589,-0.667 -7.001,-1.011 8.579,6.746 21.445,18.614 33.297,29.917 L -10.046,12.507 C -14.955,10.821 -19.8,8.963 -24.577,6.939 l 0.278,-21.844 z"
             style="fill:#ff4e00;fill-opacity:1;fill-rule:nonzero;stroke:none"
             id="path474" />
        </g>
        <g
           id="g476"
           transform="translate(305.8896,347.2686)">
          <path
             d="M 0,0 C 0.878,-4.611 1.301,1.949 2.598,10.965 L -2.1,10.99 C -1.322,6.873 -0.569,2.984 0,0"
             style="fill:#ffb900;fill-opacity:1;fill-rule:nonzero;stroke:none"
             id="path478" />
        </g>
        <g
           id="g480"
           transform="translate(286.5034,333.0713)">
          <path
             d="m 0,0 3.833,-9.353 c 0.006,-0.018 0.014,-0.036 0.021,-0.053 l 4.021,-5.574 c -0.132,0.519 -0.267,1.039 -0.41,1.56 -0.517,1.693 -1.045,3.242 -1.567,4.859 l -3.141,9.608 -7.929,24.264 -5.209,0.027 z"
             style="fill:#ffb900;fill-opacity:1;fill-rule:nonzero;stroke:none"
             id="path482" />
        </g>
        <g
           id="g484"
           transform="translate(336.7021,260.2432)">
          <path
             d="M 0,0 C 0.821,0.416 1.631,0.861 2.425,1.352 2.827,1.584 3.22,1.838 3.609,2.104 4.004,2.367 4.414,2.645 4.683,2.803 5.194,3.154 5.768,3.484 6.372,3.799 L 8.257,11.08 C 7.635,10.84 7.014,10.59 6.393,10.324 4.721,9.568 3.052,8.775 1.383,7.604 0.93,7.295 0.637,7.08 0.324,6.852 0.014,6.621 -0.305,6.395 -0.639,6.184 -1.286,5.738 -1.978,5.342 -2.657,4.924 -3.01,4.721 -3.365,4.52 -3.724,4.324 L -0.45,-0.215 C -0.301,-0.143 -0.149,-0.074 0,0"
             style="fill:#ffb900;fill-opacity:1;fill-rule:nonzero;stroke:none"
             id="path486" />
        </g>
        <g
           id="g488"
           transform="translate(355.0703,373.3003)">
          <path
             d="M 0,0 C 1.158,-1.174 2.393,-2.295 3.671,-3.337 L 0.752,0.742 Z"
             style="fill:#ffab00;fill-opacity:1;fill-rule:nonzero;stroke:none"
             id="path490" />
        </g>
        <g
           id="g492"
           transform="translate(348.5566,381.855)">
          <path
             d="m 0,0 c -0.958,1.072 -1.572,2.717 -1.277,4.129 l -11.296,15.79 c -2.568,0.857 -4.957,1.771 -6.996,2.268 1.064,0.715 2.346,1.463 3.782,2.225 l -5.246,7.334 c -1.699,-0.559 -3.189,-1.108 -4.427,-1.648 -6.669,-2.907 -10.975,-6.73 -13.787,-10.878 -4.052,-4.084 -8.953,-12.475 -9.319,-18.383 -0.175,-2.817 1.886,-14.313 3.799,-24.433 l 4.698,-0.026 c 0.997,6.93 2.511,15.309 5.144,21.181 1.867,1.615 4.267,2.927 7.496,1.446 4.909,-2.249 15.618,-1.501 22.344,-0.295 2.631,-2.265 6.669,-3.958 11.388,-5.177 L 2.5,-1.151 C 1.589,-0.788 0.752,-0.404 0,0"
             style="fill:#ffab00;fill-opacity:1;fill-rule:nonzero;stroke:none"
             id="path494" />
        </g>
        <g
           id="g496"
           transform="translate(272.4263,367.4302)">
          <path
             d="M 0,0 3.696,-9.021 8.905,-9.048 6.691,-2.275 C 6.72,-2.149 6.742,-1.999 6.753,-1.81 6.852,-0.118 5.981,1.876 4.652,3.961 L 4.281,5.102 3.968,4.987 C 3.729,5.329 3.48,5.674 3.224,6.018 L -1.089,-0.197 C -0.699,-0.144 -0.329,-0.074 0,0"
             style="fill:#ffab00;fill-opacity:1;fill-rule:nonzero;stroke:none"
             id="path498" />
        </g>
        <g
           id="g500"
           transform="translate(346.8857,502.4399)">
          <path
             d="M 0,0 7.05,16.042 -17.318,16.1 c 1.604,-1.481 3.335,-3.102 5.224,-4.877 C -8.658,7.993 -4.649,4.225 0,0"
             style="fill:#ff7700;fill-opacity:1;fill-rule:nonzero;stroke:none"
             id="path502" />
        </g>
        <g
           id="g504"
           transform="translate(253.0435,308.5244)">
          <path
             d="m 0,0 c 6.547,-7.395 13.373,-14.523 20.514,-21.307 7.123,-6.8 6.47,-4.285 -0.81,3.803 C 13.889,-11.043 8.34,-4.354 3.034,2.5 0.86,5.334 -1.271,8.197 -3.348,11.096 L -5.313,6.189 C -3.565,4.103 -1.794,2.041 0,0"
             style="fill:#ff9900;fill-opacity:1;fill-rule:nonzero;stroke:none"
             id="path506" />
        </g>
        <g
           id="g508"
           transform="translate(292.2158,319.0811)">
          <path
             d="m 0,0 c 0.081,-0.229 0.152,-0.463 0.233,-0.691 2.121,-13.596 4.464,-42.131 6.155,-46.582 2.054,-5.407 6.056,-11.061 6.302,-8.358 0.147,1.619 -3.627,19.6 -6.677,33.754 -0.885,5.842 -1.843,11.67 -3.062,17.481 -0.24,1.134 -0.502,2.269 -0.789,3.406 l -4.02,5.574 C -1.237,3.053 -0.57,1.475 0,0"
             style="fill:#ff9900;fill-opacity:1;fill-rule:nonzero;stroke:none"
             id="path510" />
        </g>
        <g
           id="g512"
           transform="translate(234.8638,259.5361)">
          <path
             d="M 0,0 -0.189,0.262 -5.934,8.242 -9.05,0.465 Z"
             style="fill:#ff9900;fill-opacity:1;fill-rule:nonzero;stroke:none"
             id="path514" />
        </g>
        <g
           id="g516"
           transform="translate(245.4336,308.9814)">
          <path
             d="m 0,0 -14.493,-36.182 c 3.05,-4.584 6.2,-9.101 9.451,-13.547 l 57.206,-2.929 C 27.095,-32.225 15.152,-18.937 0,0"
             style="fill:#ff9900;fill-opacity:1;fill-rule:nonzero;stroke:none"
             id="path518" />
        </g>
        <g
           id="g520"
           transform="translate(311.7231,257.0225)">
          <path
             d="m 0,0 c 1.323,-0.389 2.653,-0.676 3.868,-0.846 1.797,-0.258 3.6,-0.326 5.381,-0.312 1.977,0.064 3.723,0.377 5.5,0.763 3.361,0.752 6.627,1.874 9.78,3.401 L 21.255,7.545 C 18.789,6.197 16.153,5.049 13.469,4.064 11.942,3.516 10.34,2.998 8.897,2.701 7.256,2.416 5.62,2.162 3.982,2.049 1.727,1.848 -0.706,2.111 -3.253,2.66 l -3.518,0.899 h -0.001 l -2.2,0.56 2.919,-5.232 7.185,-0.367 z"
             style="fill:#ff9900;fill-opacity:1;fill-rule:nonzero;stroke:none"
             id="path522" />
        </g>
        <g
           id="g524"
           transform="translate(313.168,184.6885)">
          <path
             d="m 0,0 0.842,-0.637 9.715,-7.39 -10.152,6.791 -0.855,0.58 -17.076,-24.953 c 9.245,-1.143 18.619,-1.723 28.083,-1.723 2.646,0 5.284,0.049 7.915,0.139 L 6.359,9.293 Z"
             style="fill:#c68600;fill-opacity:1;fill-rule:nonzero;stroke:none"
             id="path526" />
        </g>
        <g
           id="g528"
           transform="translate(307.3638,228.6299)">
          <path
             d="M 0,0 C 2.997,6.943 6.808,-3.102 18.79,-15.652 L 25.62,3.924 C 24.762,4.627 23.955,5.33 23.2,6.02 l -7.281,7.892 c 0,0 8.699,-3.291 10.423,-4.41 0.109,-0.07 0.471,-0.268 1.032,-0.549 l 1.607,4.606 c -4.95,1.699 -10.098,3.66 -12.258,3.959 -1.349,0.302 -2.644,0.265 -3.675,-0.493 L 5.491,26.912 -1.693,27.279 1.23,22.039 20.182,6.168 21.169,4.373 C 14.383,9.24 6.786,14.51 -2.621,21.957 c -2.498,1.977 -4.875,3.887 -7.145,5.736 l -57.206,2.93 c 4.026,-5.502 8.205,-10.894 12.543,-16.164 1.485,-1.76 2.949,-3.541 4.425,-5.313 l 62.167,-43.794 0.867,2.484 C 4.205,-19.543 -2.816,-6.525 0,0"
             style="fill:#eaa400;fill-opacity:1;fill-rule:nonzero;stroke:none"
             id="path530" />
        </g>
        <g
           id="g532"
           transform="translate(245.063,246.4404)">
          <path
             d="m 0,0 -2.897,3.633 -3.806,4.816 c -0.629,0.807 -1.279,1.6 -1.89,2.42 l -1.606,2.227 -9.051,0.465 z"
             style="fill:#eaa400;fill-opacity:1;fill-rule:nonzero;stroke:none"
             id="path534" />
        </g>
        <g
           id="g536"
           transform="translate(265.4678,370.7065)">
          <path
             d="m 0,0 c 0.336,-0.31 0.617,-0.61 0.842,-0.896 -0.184,-0.33 -0.421,-0.75 -0.71,-1.247 -0.842,0.405 -2.769,0.394 -5.279,0.138 l 3.601,-7.465 c 0.046,0.09 0.095,0.182 0.139,0.271 l 0.474,-0.31 c 0.854,1.307 1.722,2.696 2.581,4.127 l -1.309,0.784 c 0.22,0.884 0.308,1.563 0.264,1.929 -0.009,0.066 -0.038,0.127 -0.068,0.185 l 2.102,-1.218 c 0.061,0.104 0.116,0.2 0.173,0.298 1.009,-0.241 2.103,-0.203 3.06,-0.07 l 4.313,6.216 c -3.104,4.176 -7.358,8.439 -8.925,11.18 -2.518,4.407 -9.621,7.426 -18.894,9.96 L -7.569,3.015 C -4.608,2.334 -2.031,1.366 0,0"
             style="fill:#ff8800;fill-opacity:1;fill-rule:nonzero;stroke:none"
             id="path538" />
        </g>
        <g
           id="g540"
           transform="translate(309.1494,187.7275)">
          <path
             d="M 0,0 4.019,-3.039 10.378,6.254 -3.254,2.717 Z"
             style="fill:#cc7600;fill-opacity:1;fill-rule:nonzero;stroke:none"
             id="path542" />
        </g>
        <g
           id="g544"
           transform="translate(308.5142,186.8857)">
          <path
             d="m 0,0 -4.188,3.152 -37.186,-9.644 c 4.346,-4.338 8.799,-8.576 13.35,-12.723 -5.014,3.963 -9.892,8.1 -14.64,12.387 l -25.845,-6.703 c 17.742,-7.092 36.409,-11.901 55.636,-14.276 L 4.204,-2.854 Z"
             style="fill:#cc7600;fill-opacity:1;fill-rule:nonzero;stroke:none"
             id="path546" />
        </g>
        <g
           id="g548"
           transform="translate(293.9009,197.9854)">
          <path
             d="m 0,0 -9.369,7.885 c -12.238,10.789 -24.02,22.209 -34.536,34.754 -1.331,1.552 -2.728,3.052 -4.005,4.65 l -0.928,1.166 -19.249,13.561 1.49,-31.696 c 6.471,-9.371 13.347,-18.466 20.659,-27.228 6.103,-7.149 12.513,-14.033 19.178,-20.684 L 10.425,-7.947 9.73,-7.424 C 6.48,-4.963 3.199,-2.533 0,0"
             style="fill:#df8100;fill-opacity:1;fill-rule:nonzero;stroke:none"
             id="path550" />
        </g>
        <g
           id="g552"
           transform="translate(260.7451,233.7939)">
          <path
             d="m 0,0 8.19,-8.971 2.042,-2.25 c 0.7,-0.732 1.427,-1.435 2.14,-2.156 l 4.296,-4.297 c 2.873,-2.857 5.679,-5.791 8.735,-8.457 l 8.978,-8.219 c 3.068,-2.654 6.242,-5.183 9.344,-7.808 L 45.15,-43.35 58.782,-39.813 -3.385,3.982 C -2.27,2.645 -1.148,1.311 0,0"
             style="fill:#df8100;fill-opacity:1;fill-rule:nonzero;stroke:none"
             id="path554" />
        </g>
        <g
           id="g556"
           transform="translate(246.1499,199.4854)">
          <path
             d="m 0,0 c -6.495,7.227 -12.685,14.732 -18.548,22.492 l 1.345,-28.607 c 2.727,-2.053 5.438,-3.992 8.115,-5.821 -2.703,1.206 -5.376,2.467 -8.019,3.782 l 0.636,-13.541 c 3.406,-1.565 6.848,-3.045 10.326,-4.436 L 19.7,-19.428 C 12.862,-13.252 6.295,-6.76 0,0"
             style="fill:#df8100;fill-opacity:1;fill-rule:nonzero;stroke:none"
             id="path558" />
        </g>
        <g
           id="g560"
           transform="translate(185.0625,430.4058)">
          <path
             d="m 0,0 11.609,-1.916 c -0.58,0.727 -1.01,1.465 -1.265,2.217 C 8.95,4.422 7.385,11.474 6.146,20.084 L -2.318,7.388 C -1.634,4.695 -0.863,2.214 0,0"
             style="fill:#ff6200;fill-opacity:1;fill-rule:nonzero;stroke:none"
             id="path562" />
        </g>
        <g
           id="g564"
           transform="translate(228.709,544.3892)">
          <path
             d="m 0,0 -23.764,-5.037 -3.642,-0.772 25.704,-14.382 c 2.578,0.18 5.731,0.517 9.635,1.008 L 7.572,9.228 5.114,6.232 Z"
             style="fill:#fa3600;fill-opacity:1;fill-rule:nonzero;stroke:none"
             id="path566" />
        </g>
        <g
           id="g568"
           transform="translate(194.0254,542.6519)">
          <path
             d="M 0,0 42.067,25.805 41.79,47.649 C 35.152,44.838 28.65,41.702 22.303,38.253 L -4.298,2.405 Z"
             style="fill:#fa3600;fill-opacity:1;fill-rule:nonzero;stroke:none"
             id="path570" />
        </g>
        <g
           id="g572"
           transform="translate(234.1797,408.7612)">
          <path
             d="M 0,0 C -2.94,1.703 -6.534,3.377 -10.335,5.049 L -13.277,2.717 C -7.423,1.649 -2.644,0.956 0,0"
             style="fill:#ff7200;fill-opacity:1;fill-rule:nonzero;stroke:none"
             id="path574" />
        </g>
        <g
           id="g576"
           transform="translate(179.2607,369.5337)">
          <path
             d="M 0,0 C -0.749,2.389 -1.477,4.783 -2.186,7.185 L -9.675,1.244 Z"
             style="fill:#ff7200;fill-opacity:1;fill-rule:nonzero;stroke:none"
             id="path578" />
        </g>
        <g
           id="g580"
           transform="translate(234.1797,408.7612)">
          <path
             d="M 0,0 C 0.73,-0.423 1.424,-0.847 2.067,-1.273 1.749,-0.782 1.03,-0.373 0,0"
             style="fill:#ff7200;fill-opacity:1;fill-rule:nonzero;stroke:none"
             id="path582" />
        </g>
        <g
           id="g584"
           transform="translate(201.0903,383.7827)">
          <path
             d="m 0,0 c 6.419,-1.533 14.686,1.794 34.444,1.19 2.639,-2.705 5.129,-5.713 5.578,-7.799 -4.194,0.028 -8.536,-0.085 -12.84,-0.197 -7.72,-0.203 -15.2,-0.396 -21.114,0.257 C 4.32,-4.278 2.164,-2.07 0,0 m 9.94,-15.987 c 0.652,-0.61 1.528,-1.338 2.667,-2.117 0.176,-0.208 0.362,-0.425 0.555,-0.647 l 48.644,-6.259 c 0.184,0.263 0.368,0.527 0.554,0.8 l -0.31,0.213 c 0.285,0.491 0.541,0.975 0.782,1.451 l -3.602,7.465 C 52.763,-15.74 42.423,-18.026 36.795,-19.037 32.497,-19.81 25.7,-18.91 19.173,-17.411 l -9.294,2.665 c -1.74,2.196 -2.907,3.856 -2.334,6.097 5.768,-0.484 12.629,-0.306 19.688,-0.123 10.652,0.279 21.54,0.558 29.576,-1.29 L 46.741,10.806 c -10.873,2.97 -24.729,5.273 -37.679,8.363 l -29.277,-23.22 c 0.964,-3.158 1.965,-6.306 3.008,-9.439 0.157,-0.473 0.316,-0.944 0.473,-1.415 l 26.976,-3.471 c -0.169,0.863 -0.272,1.662 -0.302,2.389"
             style="fill:#ff7200;fill-opacity:1;fill-rule:nonzero;stroke:none"
             id="path586" />
        </g>
        <g
           id="g588"
           transform="translate(225.8135,260.001)">
          <path
             d="M 0,0 3.116,7.777 1.687,9.764 -5.06,20.025 c -8.748,13.842 -16.601,28.246 -23.559,43.071 l -4.965,11.232 c -1.582,3.774 -3.061,7.592 -4.596,11.385 -0.375,0.953 -0.774,1.896 -1.128,2.855 l -1.045,2.885 -2.087,5.772 c -1.448,3.829 -2.65,7.742 -3.904,11.637 -0.071,0.222 -0.139,0.447 -0.209,0.671 l -9.675,1.244 z"
             style="fill:#ff7400;fill-opacity:1;fill-rule:nonzero;stroke:none"
             id="path590" />
        </g>
        <g
           id="g592"
           transform="translate(221.1655,358.249)">
          <path
             d="m 0,0 c 0.13,-1.014 0.325,-1.967 0.574,-2.846 0.371,-1.384 0.848,-2.648 1.335,-3.898 1.002,-2.469 2.181,-4.75 3.39,-7.002 2.476,-4.449 5.21,-8.645 8.072,-12.725 4.16,-5.908 8.59,-11.568 13.194,-17.064 l 1.965,4.906 c -3.599,5.022 -7.033,10.147 -10.223,15.387 -2.505,4.131 -4.856,8.344 -6.876,12.621 -0.319,0.703 -0.63,1.408 -0.934,2.115 0.086,-0.051 0.17,-0.107 0.256,-0.154 0.314,-0.178 0.643,-0.346 0.986,-0.506 l 0.748,1.604 c 0.581,-0.229 1.173,-0.442 1.772,-0.643 l -0.572,-1.729 c 1.521,-0.504 3.2,-0.863 4.99,-1.066 l 0.179,1.586 c 0.481,-0.09 0.965,-0.176 1.456,-0.246 0.15,-0.022 0.294,-0.029 0.444,-0.047 l -0.064,-1.451 c 0.431,-0.02 0.864,-0.031 1.297,-0.031 1.245,0.031 2.534,0.08 3.756,0.236 l -0.15,1.15 c 0.662,0.063 1.305,0.157 1.929,0.278 l 0.229,-1.086 c 1.819,0.383 3.466,0.947 4.9,1.673 l -0.482,0.95 c 0.613,0.295 1.199,0.619 1.762,0.967 l 0.577,-0.75 c 1.106,0.849 2.329,2.056 3.635,3.589 l -0.313,0.268 c 0.472,0.473 0.915,0.957 1.334,1.453 L 39.4,-2.643 c 0.747,0.952 1.53,2.018 2.331,3.166 L -6.913,6.783 C -5.24,4.851 -2.908,2.418 0,0"
             style="fill:#ff7400;fill-opacity:1;fill-rule:nonzero;stroke:none"
             id="path594" />
        </g>
        <g
           id="g596"
           transform="translate(243.1289,311.8721)">
          <path
             d="m 0,0 c -16.187,20.383 -29.62,42.4 -31.797,53.535 l -26.975,3.47 c 4.967,-14.874 10.649,-29.515 17.295,-43.716 8.445,-18.144 18.201,-35.693 29.289,-52.361 L 2.305,-2.891 C 1.545,-1.941 0.778,-0.979 0,0"
             style="fill:#ff7400;fill-opacity:1;fill-rule:nonzero;stroke:none"
             id="path598" />
        </g>
        <g
           id="g600"
           transform="translate(175.3916,320.3877)">
          <path
             d="m 0,0 c -2.071,5.826 -4.031,11.693 -5.879,17.594 l -0.157,-71.188 c 3.048,-6.926 6.48,-13.461 10.208,-19.615 l 26.406,7.32 C 18.332,-44.961 8.15,-22.824 0,0"
             style="fill:#fc6200;fill-opacity:1;fill-rule:nonzero;stroke:none"
             id="path602" />
        </g>
        <g
           id="g604"
           transform="translate(169.5854,370.7778)">
          <path
             d="m 0,0 -0.036,-16.15 c 3.109,-10.98 6.581,-21.855 10.466,-32.578 2.543,-7.322 5.442,-14.51 8.345,-21.691 l 4.627,-10.659 c 1.573,-3.541 3.318,-6.998 4.938,-10.517 3.842,-7.963 7.932,-15.809 12.279,-23.51 l 15.609,4.328 z"
             style="fill:#fc6200;fill-opacity:1;fill-rule:nonzero;stroke:none"
             id="path606" />
        </g>
        <g
           id="g608"
           transform="translate(169.3218,251.6357)">
          <path
             d="m 0,0 -0.016,-7.301 3.837,1.063 C 2.508,-4.178 1.235,-2.098 0,0"
             style="fill:#fc6200;fill-opacity:1;fill-rule:nonzero;stroke:none"
             id="path610" />
        </g>
        <g
           id="g612"
           transform="translate(215.376,198.7549)">
          <path
             d="M 0,0 C -17.288,13.393 -31.161,29.275 -42.233,46.643 L -46.07,45.58 5.153,-16.502 c 3.017,-1.559 6.068,-3.047 9.15,-4.463 L 13.666,-7.424 C 9.014,-5.111 4.455,-2.635 0,0"
             style="fill:#e56700;fill-opacity:1;fill-rule:nonzero;stroke:none"
             id="path614" />
        </g>
        <g
           id="g616"
           transform="translate(205.9697,254.499)">
          <path
             d="M 0,0 -26.406,-7.32 C -12.468,-30.334 5.58,-48.037 22.977,-61.129 l -1.345,28.608 c -3.577,4.734 -7.032,9.562 -10.358,14.48 C 7.338,-12.141 3.582,-6.121 0,0"
             style="fill:#e56700;fill-opacity:1;fill-rule:nonzero;stroke:none"
             id="path618" />
        </g>
        <g
           id="g620"
           transform="translate(210.2046,255.6729)">
          <path
             d="m 0,0 c 3.268,-5.789 6.681,-11.498 10.247,-17.113 2.232,-3.451 4.516,-6.871 6.853,-10.254 L 15.609,4.328 Z"
             style="fill:#e56700;fill-opacity:1;fill-rule:nonzero;stroke:none"
             id="path622" />
        </g>
        <g
           id="g624"
           transform="translate(177.0752,376.7183)">
          <path
             d="M 0,0 C -1.533,5.194 -2.972,10.415 -4.304,15.663 L -7.49,-5.94 Z"
             style="fill:#ff6800;fill-opacity:1;fill-rule:nonzero;stroke:none"
             id="path626" />
        </g>
        <g
           id="g628"
           transform="translate(182.3682,412.8813)">
          <path
             d="M 0,0 C -1.767,3.807 -3.516,7.59 -4.985,10.775 L -7.976,-9.506 c 1.945,-7.941 4.097,-15.829 6.483,-23.643 L 27.784,-9.93 C 17.213,-7.407 7.246,-4.361 0,0"
             style="fill:#ff6800;fill-opacity:1;fill-rule:nonzero;stroke:none"
             id="path630" />
        </g>
        <g
           id="g632"
           transform="translate(192.6587,420.0239)">
          <path
             d="m 0,0 c 9.578,-4.789 19.982,-7.04 28.244,-8.546 l 2.942,2.332 C 20.542,-1.531 8.255,3.146 4.013,8.466 L -7.596,10.382 C -5.593,5.243 -3.09,1.545 0,0"
             style="fill:#ff6800;fill-opacity:1;fill-rule:nonzero;stroke:none"
             id="path634" />
        </g>
        <g
           id="g636"
           transform="translate(216.3281,580.9048)">
          <path
             d="m 0,0 c -11.114,-6.042 -21.751,-13.049 -31.807,-20.979 l 5.206,-14.869 z"
             style="fill:#ee2300;fill-opacity:1;fill-rule:nonzero;stroke:none"
             id="path638" />
        </g>
        <g
           id="g640"
           transform="translate(191.209,450.4897)">
          <path
             d="m 0,0 c -2.928,20.35 -4.036,49.403 3.228,69.034 7.247,2.525 15.94,4.307 26.138,4.622 1.648,-0.155 3.723,-0.137 6.432,0.052 L 10.094,88.091 -2.381,85.446 -10.838,-0.4 c 0.637,-4.405 1.423,-8.554 2.374,-12.296 z"
             style="fill:#ff4d00;fill-opacity:1;fill-rule:nonzero;stroke:none"
             id="path642" />
        </g>
        <g
           id="g644"
           transform="translate(189.7271,545.0571)">
          <path
             d="m 0,0 -0.529,-5.366 4.827,2.961 z"
             style="fill:#ff4d00;fill-opacity:1;fill-rule:nonzero;stroke:none"
             id="path646" />
        </g>
        <g
           id="g648"
           transform="translate(165.2466,222.5068)">
          <path
             d="M 0,0 C 16.54,-16.367 35.167,-29.869 55.283,-40.254 L 4.059,21.828 Z"
             style="fill:#d45200;fill-opacity:1;fill-rule:nonzero;stroke:none"
             id="path650" />
        </g>
        <g
           id="g652"
           transform="translate(153.3643,235.1846)">
          <path
             d="m 0,0 c 3.518,-4.051 7.192,-7.998 11.023,-11.828 0.286,-0.285 0.573,-0.567 0.859,-0.85 L 15.941,9.15 Z"
             style="fill:#d24000;fill-opacity:1;fill-rule:nonzero;stroke:none"
             id="path654" />
        </g>
        <g
           id="g656"
           transform="translate(131.667,299.1416)">
          <path
             d="M 0,0 C 3.199,-10.422 7.101,-20.754 11.831,-30.857 2.823,-16.719 -4.567,-1.451 -10.08,14.678 l -19.624,28.576 c 6.22,-34.649 20.45,-67.168 41.771,-95.34 l 25.572,-2.721 z"
             style="fill:#ec4600;fill-opacity:1;fill-rule:nonzero;stroke:none"
             id="path658" />
        </g>
        <g
           id="g660"
           transform="translate(165.3779,370.2339)">
          <path
             d="m 0,0 c 0.316,-1.252 0.636,-2.503 0.964,-3.752 1.023,-3.964 2.093,-7.916 3.208,-11.854 l 0.035,16.15 z"
             style="fill:#fc5000;fill-opacity:1;fill-rule:nonzero;stroke:none"
             id="path662" />
        </g>
        <g
           id="g664"
           transform="translate(134.6387,366.2573)">
          <path
             d="m 0,0 -14.773,-1.912 c 1.537,-21.309 5.127,-43.454 11.801,-65.204 l 37.639,-54.806 0.016,7.3 C 13.844,-79.2 3.922,-38.309 0,0"
             style="fill:#fc5000;fill-opacity:1;fill-rule:nonzero;stroke:none"
             id="path666" />
        </g>
        <g
           id="g668"
           transform="translate(111.0684,363.2075)">
          <path
             d="m 0,0 -11.717,-1.516 c 0.596,-6.495 1.469,-12.931 2.612,-19.296 L 10.519,-49.388 C 5.145,-33.665 1.557,-17.122 0,0"
             style="fill:#fc5000;fill-opacity:1;fill-rule:nonzero;stroke:none"
             id="path670" />
        </g>
        <g
           id="g672"
           transform="translate(161.8398,365.3511)">
          <path
             d="m 0,0 -0.997,4.296 -16.84,-2.179 c 5.21,-34.489 12.867,-69.258 22.745,-94.416 0.833,-2.121 1.705,-4.205 2.608,-6.258 L 7.673,-27.37 C 4.84,-18.325 2.274,-9.198 0,0"
             style="fill:#fc5000;fill-opacity:1;fill-rule:nonzero;stroke:none"
             id="path674" />
        </g>
        <g
           id="g676"
           transform="translate(165.4458,428.1606)">
          <path
             d="m 0,0 c -0.646,4.092 -1.23,8.193 -1.743,12.303 l -11.627,7.039 c 0.687,-7.38 1.556,-14.741 2.583,-22.079 z"
             style="fill:#f34c00;fill-opacity:1;fill-rule:nonzero;stroke:none"
             id="path678" />
        </g>
        <g
           id="g680"
           transform="translate(151.2471,424.5581)">
          <path
             d="m 0,0 c -0.927,8.21 -1.618,16.445 -2.059,24.693 l -13.217,8.002 c 0.127,-10.532 0.733,-22.821 1.802,-36.114 z"
             style="fill:#f34c00;fill-opacity:1;fill-rule:nonzero;stroke:none"
             id="path682" />
        </g>
        <g
           id="g684"
           transform="translate(168.8857,429.0327)">
          <path
             d="M 0,0 5.396,1.369 C 5.347,1.476 5.3,1.577 5.256,1.674 4.925,2.398 4.554,3.811 4.163,5.772 l -5.741,3.476 c 0.489,-3.073 0.97,-6.145 1.569,-9.2 z"
             style="fill:#f34c00;fill-opacity:1;fill-rule:nonzero;stroke:none"
             id="path686" />
        </g>
        <g
           id="g688"
           transform="translate(112.5933,414.7505)">
          <path
             d="M 0,0 C 2.394,15.819 6.528,31.076 12.202,45.566 10.113,32.891 8.224,18.05 7.184,1.822 l 12.842,3.259 c 0.323,13.954 1.255,26.798 2.453,37.966 L 3.076,54.794 C -3.875,38.146 -8.796,20.653 -11.565,2.624 l 2.538,-4.915 z"
             style="fill:#f34c00;fill-opacity:1;fill-rule:nonzero;stroke:none"
             id="path690" />
        </g>
        <g
           id="g692"
           transform="translate(184.521,559.9253)">
          <path
             d="M 0,0 C -2.756,-2.174 -5.469,-4.415 -8.136,-6.727 L 5.206,-14.868 Z"
             style="fill:#e51300;fill-opacity:1;fill-rule:nonzero;stroke:none"
             id="path694" />
        </g>
        <g
           id="g696"
           transform="translate(176.3853,553.1987)">
          <path
             d="m 0,0 c -4.11,-3.563 -8.113,-7.286 -11.998,-11.171 -1.954,-1.954 -3.868,-3.939 -5.742,-5.952 l 31.082,8.981 z"
             style="fill:#e71c00;fill-opacity:1;fill-rule:nonzero;stroke:none"
             id="path698" />
        </g>
        <g
           id="g700"
           transform="translate(135.9746,465.5308)">
          <path
             d="m 0,0 c -0.038,-2.615 -0.039,-5.38 -0.004,-8.277 l 13.217,-8.002 c -0.158,2.959 -0.285,5.92 -0.379,8.882 -0.249,7.811 -0.226,15.633 0.151,23.439 0.205,3.78 0.455,7.575 0.886,11.345 0.273,0.364 0.549,0.729 0.825,1.098 C 14.679,28.21 14.662,27.935 14.643,27.66 14.418,23.781 14.315,19.895 14.34,16.009 14.37,8.238 14.633,0.47 15.232,-7.278 c 0.244,-3.587 0.537,-7.171 0.87,-10.75 l 11.626,-7.039 C 26.708,-16.905 25.96,-8.712 25.526,-0.5 L 25.26,5.618 c -0.078,2.04 -0.079,4.084 -0.122,6.124 l -0.048,3.06 0.037,3.062 c 0.038,2.042 0.017,4.081 0.143,6.121 0.283,6.852 0.761,13.754 2.148,20.474 0.081,0.092 0.164,0.184 0.244,0.276 -0.125,-0.84 -0.205,-1.69 -0.314,-2.532 -0.28,-2.01 -0.335,-4.047 -0.488,-6.068 -0.134,-2.024 -0.145,-4.058 -0.224,-6.082 -0.056,-2.028 -0.005,-4.06 -0.012,-6.087 0.13,-8.113 0.517,-16.22 1.297,-24.294 0.15,-2.022 0.392,-4.036 0.603,-6.052 0.226,-2.015 0.416,-4.032 0.668,-6.043 l 0.809,-6.027 0.405,-3.012 0.479,-3.002 c 0.153,-0.929 0.301,-1.857 0.448,-2.786 l 5.741,-3.476 c -2.37,11.877 -5.508,43.938 -5.316,65.983 1.819,3.087 5.588,7.212 11.382,11.144 C 41.65,30.236 41.476,4.73 44.396,-15.441 l 8.458,85.846 -8.788,-1.862 9.158,5.617 0.529,5.366 -31.082,-8.981 C 4.292,50.8 -10.164,28.305 -20.305,4.014 L -0.902,-7.733 C -0.615,-5.057 -0.313,-2.477 0,0"
             style="fill:#f74100;fill-opacity:1;fill-rule:nonzero;stroke:none"
             id="path702" />
        </g>
        <g
           id="g704"
           transform="translate(156.8159,388.2837)">
          <path
             d="m 0,0 c -0.729,3.843 -1.41,7.695 -2.097,11.546 -0.638,3.859 -1.187,7.732 -1.785,11.597 -0.63,4.368 -1.191,8.746 -1.687,13.131 l -13.474,-3.419 c 0.829,-10.303 1.935,-21.208 3.31,-32.366 L 2.236,-10.855 Z"
             style="fill:#ff5e00;fill-opacity:1;fill-rule:nonzero;stroke:none"
             id="path706" />
        </g>
        <g
           id="g708"
           transform="translate(132.7583,394.0288)">
          <path
             d="m 0,0 c -0.308,8.912 -0.33,17.551 -0.139,25.803 l -12.842,-3.259 c -0.292,-4.541 -0.517,-9.19 -0.661,-13.931 z"
             style="fill:#ff5e00;fill-opacity:1;fill-rule:nonzero;stroke:none"
             id="path710" />
        </g>
        <g
           id="g712"
           transform="translate(172.7715,392.3813)">
          <path
             d="m 0,0 c -2.019,7.953 -3.795,15.965 -5.292,24.029 -0.734,3.907 -1.413,7.825 -2.034,11.75 l -10.786,-2.737 c 0.627,-4.48 1.312,-8.953 2.052,-13.415 2.17,-12.742 4.675,-25.428 7.726,-37.98 l 5.148,-3.25 z"
             style="fill:#ff5e00;fill-opacity:1;fill-rule:nonzero;stroke:none"
             id="path714" />
        </g>
        <g
           id="g716"
           transform="translate(103.5664,412.4595)">
          <path
             d="m 0,0 8.043,-5.078 c 0.286,2.469 0.614,4.926 0.984,7.369 z"
             style="fill:#ff5e00;fill-opacity:1;fill-rule:nonzero;stroke:none"
             id="path718" />
        </g>
        <g
           id="g720"
           transform="translate(174.2813,430.4019)">
          <path
             d="m 0,0 -5.396,-1.369 1.094,-5.927 c 0.384,-1.988 0.834,-3.964 1.247,-5.946 0.989,-4.611 2.045,-9.206 3.166,-13.784 L 3.102,-6.745 C 1.774,-3.866 0.675,-1.476 0,0"
             style="fill:#ff5e00;fill-opacity:1;fill-rule:nonzero;stroke:none"
             id="path722" />
        </g>
        <g
           id="g724"
           transform="translate(110.1865,382.6909)">
          <path
             d="M 0,0 C 0,8.351 0.485,16.588 1.423,24.69 L -6.62,29.769 -11.505,11.597 C -11.699,7.748 -11.798,3.882 -11.798,0 c 0,-7.055 0.326,-14.06 0.963,-20.999 l 11.717,1.516 C 0.298,-13.065 0,-6.566 0,0"
             style="fill:#fb5700;fill-opacity:1;fill-rule:nonzero;stroke:none"
             id="path726" />
        </g>
        <g
           id="g728"
           transform="translate(164.4375,374.0278)">
          <path
             d="M 0,0 C 0.308,-1.266 0.622,-2.531 0.94,-3.794 L 5.148,-3.25 Z"
             style="fill:#fb5700;fill-opacity:1;fill-rule:nonzero;stroke:none"
             id="path730" />
        </g>
        <g
           id="g732"
           transform="translate(119.1162,402.6421)">
          <path
             d="m 0,0 c -0.372,-12.25 -0.202,-25.113 0.749,-38.297 l 14.774,1.912 c -0.968,9.455 -1.57,18.752 -1.881,27.772 z"
             style="fill:#fb5700;fill-opacity:1;fill-rule:nonzero;stroke:none"
             id="path734" />
        </g>
        <g
           id="g736"
           transform="translate(159.1841,376.7866)">
          <path
             d="m 0,0 -0.132,0.642 -17.969,11.344 c 0.867,-7.031 1.841,-14.161 2.92,-21.304 L 1.658,-7.14 Z"
             style="fill:#fb5700;fill-opacity:1;fill-rule:nonzero;stroke:none"
             id="path738" />
        </g>
        <g
           id="g740"
           transform="translate(169.3057,244.335)">
          <path
             d="m 0,0 -25.572,2.721 c 3.065,-4.049 6.276,-8.008 9.631,-11.871 z"
             style="fill:#d94500;fill-opacity:1;fill-rule:nonzero;stroke:none"
             id="path742" />
        </g>
        <g
           id="g744"
           transform="translate(101.0283,417.3745)">
          <path
             d="M 0,0 C -1.168,-7.608 -1.956,-15.311 -2.347,-23.087 L 2.538,-4.915 Z"
             style="fill:#ec4b00;fill-opacity:1;fill-rule:nonzero;stroke:none"
             id="path746" />
        </g>
      </g>
    </g>
  </g>
</svg>
