<?xml version="1.0" encoding="UTF-8" standalone="no"?>
<!-- Created with Inkscape (http://www.inkscape.org/) -->

<svg
   version="1.1"
   id="svg1772"
   width="1600"
   height="1600"
   viewBox="0 0 1600 1600"
   sodipodi:docname="bouquet-lilies-vector-pdv.svg"
   inkscape:version="1.2 (dc2aedaf03, 2022-05-15)"
   xmlns:inkscape="http://www.inkscape.org/namespaces/inkscape"
   xmlns:sodipodi="http://sodipodi.sourceforge.net/DTD/sodipodi-0.dtd"
   xmlns="http://www.w3.org/2000/svg"
   xmlns:svg="http://www.w3.org/2000/svg">
  <defs
     id="defs1776">
    <clipPath
       clipPathUnits="userSpaceOnUse"
       id="clipPath1790">
      <path
         d="M 0,1200 H 1200 V 0 H 0 Z"
         id="path1788" />
    </clipPath>
  </defs>
  <sodipodi:namedview
     id="namedview1774"
     pagecolor="#ffffff"
     bordercolor="#000000"
     borderopacity="0.25"
     inkscape:showpageshadow="2"
     inkscape:pageopacity="0.0"
     inkscape:pagecheckerboard="0"
     inkscape:deskcolor="#d1d1d1"
     showgrid="false"
     inkscape:zoom="0.523125"
     inkscape:cx="800"
     inkscape:cy="800.95579"
     inkscape:window-width="1920"
     inkscape:window-height="1017"
     inkscape:window-x="-8"
     inkscape:window-y="-8"
     inkscape:window-maximized="1"
     inkscape:current-layer="g1780">
    <inkscape:page
       x="0"
       y="0"
       id="page1778"
       width="1600"
       height="1600" />
  </sodipodi:namedview>
  <g
     id="g1780"
     inkscape:groupmode="layer"
     inkscape:label="Page 1"
     transform="matrix(1.3333333,0,0,-1.3333333,0,1600)">
    <path
       d="M 0.473,0 H 1197.22 V 1195.475 H 0.473 Z"
       style="fill:#96a386;fill-opacity:1;fill-rule:nonzero;stroke:none"
       id="path1782" />
    <g
       id="g1784">
      <g
         id="g1786"
         clip-path="url(#clipPath1790)">
        <g
           id="g1792"
           transform="translate(598.8472,75.9678)">
          <path
             d="M 0,0 C 104.374,0 189.5,14.188 189.5,31.584 189.5,48.98 104.374,63.168 0,63.168 -104.371,63.168 -189.497,48.98 -189.497,31.584 -189.497,14.188 -104.371,0 0,0"
             style="fill:#839171;fill-opacity:1;fill-rule:evenodd;stroke:none"
             id="path1794" />
        </g>
        <g
           id="g1796"
           transform="translate(495.3848,473.499)">
          <path
             d="m 0,0 c 7.233,32.081 23.256,64.577 15.128,95.939 -7.132,27.536 -46.723,35.503 -60.049,60.633 -12.26,23.114 -17.748,42.769 -37.898,59.456 -40.342,33.409 -120.122,14.171 -149.614,53.92 21.428,-56.759 24.611,-81.68 38.834,-127.021 5.816,-18.54 15.563,-28.8 24.433,-46.089 13.373,-26.066 16.835,-54.847 39.602,-73.286 C -97.152,-2.694 -49.646,0.978 -8.521,-7.995 66.55,-59.518 88.067,-98.118 64.853,-254.136 l 10.664,2.115 C 98.138,-90.138 76.702,-51.27 0,0"
             style="fill:#3c4d2c;fill-opacity:1;fill-rule:evenodd;stroke:none"
             id="path1798" />
        </g>
        <g
           id="g1800"
           transform="translate(665.5752,483.3994)">
          <path
             d="m 0,0 c -8.375,37.152 -26.932,74.785 -17.523,111.103 8.263,31.887 54.11,41.114 69.544,70.218 14.197,26.767 20.553,49.529 43.889,68.852 46.718,38.691 139.108,16.411 173.257,62.444 -24.809,-65.731 -28.499,-94.591 -44.97,-147.098 -6.734,-21.471 -18.022,-33.354 -28.294,-53.372 C 180.415,81.96 176.407,48.629 150.039,27.276 112.508,-3.119 57.494,1.131 9.867,-9.258 -77.071,-68.923 -101.987,-113.626 -75.107,-294.303 l -12.349,2.449 C -113.649,-104.384 -88.828,-59.373 0,0"
             style="fill:#3c4d2c;fill-opacity:1;fill-rule:evenodd;stroke:none"
             id="path1802" />
        </g>
        <g
           id="g1804"
           transform="translate(694.4004,463.4541)">
          <path
             d="m 0,0 c -43,-17.694 -79.586,-44.969 -111.632,-79.014 -32.194,-34.203 -59.829,-75.243 -84.786,-120.289 l -8.122,4.518 c 25.308,45.68 53.371,87.343 86.133,122.146 32.908,34.959 70.547,62.996 114.873,81.237 z"
             style="fill:#3c4d2c;fill-opacity:1;fill-rule:evenodd;stroke:none"
             id="path1806" />
        </g>
        <g
           id="g1808"
           transform="translate(839.1045,527.2412)">
          <path
             d="m 0,0 c -21.144,7.065 -32.573,-46.882 -54.374,-58.948 -17.941,-9.935 -70.754,-21.914 -92.993,-30.396 -10.083,-3.848 -22.493,1.009 -28.801,13.28 -6.309,12.268 -3.046,25.206 5.963,31.151 19.396,12.804 61.163,49.232 78.835,57.937 C -64.9,26.051 -10.217,19.874 0,0"
             style="fill:#fffad6;fill-opacity:1;fill-rule:evenodd;stroke:none"
             id="path1810" />
        </g>
        <g
           id="g1812"
           transform="translate(834.2939,530.0937)">
          <path
             d="m 0,0 c -4.053,4.295 -10.274,7.268 -15.359,9.122 -9.691,3.538 -20.73,5.205 -31.01,5.573 -12.471,0.448 -27.864,-0.974 -39.194,-6.551 -0.876,-0.431 -1.718,-0.932 -2.58,-1.361 -14.634,-7.522 -18.68,-28.827 -9.036,-47.586 9.643,-18.76 29.325,-27.867 43.957,-20.345 0.836,0.448 1.716,0.852 2.567,1.324 8.82,4.884 16.338,18 21.259,26.554 4.102,7.125 8.135,14.672 12.994,21.301 3.715,5.068 8.881,10.856 15.433,11.858 C -0.646,-0.062 -0.324,-0.025 0,0"
             style="fill:#fff394;fill-opacity:1;fill-rule:evenodd;stroke:none"
             id="path1814" />
        </g>
        <g
           id="g1816"
           transform="translate(735.5449,526.125)">
          <path
             d="m 0,0 c -5.217,-9.99 -5.024,-24.006 1.57,-36.834 6.593,-12.827 17.883,-21.142 29.039,-22.71 1.282,10.585 -0.847,22.699 -6.744,34.171 C 17.971,-13.903 9.354,-5.119 0,0"
             style="fill:#ffef73;fill-opacity:1;fill-rule:evenodd;stroke:none"
             id="path1818" />
        </g>
        <g
           id="g1820"
           transform="translate(734.1504,496.3613)">
          <path
             d="m 0,0 c 0.714,-2.172 1.601,-4.335 2.663,-6.471 11.671,5.52 22.234,9.547 31.68,12.676 14.122,4.678 9.259,14.456 -3.224,9.206 C 20.342,10.877 10.024,5.83 0,0"
             style="fill:#f5ac00;fill-opacity:1;fill-rule:evenodd;stroke:none"
             id="path1822" />
        </g>
        <g
           id="g1824"
           transform="translate(751.1914,455.9082)">
          <path
             d="m 0,0 c -21.348,-6.466 -45.996,-12.879 -59.454,-18.011 -10.083,-3.848 -22.493,1.009 -28.801,13.28 -3.457,6.729 -4.04,13.656 -2.374,19.523 0.641,-15.479 15,-28.1 34.849,-22.699 C -35.932,-2.508 -21.733,-3.75 0,0"
             style="fill:#e3dfbd;fill-opacity:1;fill-rule:evenodd;stroke:none"
             id="path1826" />
        </g>
        <g
           id="g1828"
           transform="translate(677.1475,484.1465)">
          <path
             d="M 0,0 45.219,34.176 44.298,25.131 Z"
             style="fill:#ffffff;fill-opacity:1;fill-rule:evenodd;stroke:none"
             id="path1830" />
        </g>
        <g
           id="g1832"
           transform="translate(600.3252,515.6465)">
          <path
             d="m 0,0 c -15.792,48.25 -52.291,94.223 -47.374,144.754 3.924,40.348 57.882,60.36 71.06,98.697 12.122,35.261 15.48,64.149 40.137,92.119 49.368,55.992 123.262,67.771 155.943,130.279 -17.546,-84.662 -0.581,-127.773 -10.528,-194.762 -4.067,-27.39 -20.306,-44.756 -28.951,-71.063 -13.038,-39.667 20.059,-94 -7.897,-125.015 C 130.435,28.457 57.464,25.002 0,0"
             style="fill:#556b41;fill-opacity:1;fill-rule:evenodd;stroke:none"
             id="path1834" />
        </g>
        <g
           id="g1836"
           transform="translate(525.3193,652.3833)">
          <path
             d="m 0,0 c 15.792,48.252 52.292,94.225 47.374,144.755 -3.926,40.349 -57.884,60.362 -71.06,98.698 -12.123,35.263 -15.48,64.148 -40.139,92.118 -49.366,55.992 -123.26,67.771 -155.941,130.279 17.547,-84.659 0.579,-127.772 10.528,-194.761 4.067,-27.39 20.307,-44.756 28.951,-71.063 13.036,-39.667 -20.06,-94 7.895,-125.014 C -130.437,28.461 -57.464,25.004 0,0"
             style="fill:#29361c;fill-opacity:1;fill-rule:evenodd;stroke:none"
             id="path1838" />
        </g>
        <g
           id="g1840"
           transform="translate(515.3921,705.5376)">
          <path
             d="m 0,0 c 22.494,-76.357 41.252,-157.787 55.189,-241.934 13.346,-80.572 22.269,-163.67 25.822,-247.226 L 65.53,-489.766 C 62.007,-406.932 53.146,-324.46 39.89,-244.422 26.062,-160.955 7.452,-80.155 -14.878,-4.371 Z"
             style="fill:#29361c;fill-opacity:1;fill-rule:evenodd;stroke:none"
             id="path1842" />
        </g>
        <g
           id="g1844"
           transform="translate(491.0176,566.0146)">
          <path
             d="m 0,0 c 31.901,-43.653 58.027,-96.897 79.227,-158.311 21.121,-61.186 37.35,-130.471 49.533,-206.448 l -12.239,-1.944 c -12.08,75.327 -28.135,143.92 -49.001,204.359 -20.785,60.214 -46.352,112.351 -77.527,155.011 z"
             style="fill:#3c4d2c;fill-opacity:1;fill-rule:evenodd;stroke:none"
             id="path1846" />
        </g>
        <g
           id="g1848"
           transform="translate(654.0771,517.3799)">
          <path
             d="m 0,0 c -25.015,-36.405 -46.08,-79.062 -64.358,-126.13 -18.294,-47.114 -33.801,-98.748 -47.678,-153.016 l -12.046,3.06 c 13.948,54.549 29.601,106.617 48.164,154.426 18.585,47.855 40.085,91.349 65.717,128.653 z"
             style="fill:#3c4d2c;fill-opacity:1;fill-rule:evenodd;stroke:none"
             id="path1850" />
        </g>
        <g
           id="g1852"
           transform="translate(768.5273,738.7173)">
          <path
             d="m 0,0 c -29.484,-10.761 5.239,-80.2 -8.185,-112.606 -11.05,-26.677 -58.707,-86.186 -75.76,-115.031 -7.733,-13.082 -25.66,-18.614 -43.367,-10.632 -17.706,7.98 -25.46,25.086 -20.754,39.534 10.134,31.113 24.183,107.867 36.015,132.946 C -94.329,-28.221 -28.682,12.928 0,0"
             style="fill:#fffad6;fill-opacity:1;fill-rule:evenodd;stroke:none"
             id="path1854" />
        </g>
        <g
           id="g1856"
           transform="translate(760.7246,737.6401)">
          <path
             d="m 0,0 c -8.227,1.176 -17.685,-1.007 -24.914,-3.42 -13.775,-4.606 -27.395,-12.449 -39.039,-21.059 -14.126,-10.444 -29.834,-25.51 -37.419,-41.589 -0.587,-1.245 -1.073,-2.534 -1.651,-3.759 -9.519,-21.119 4.709,-48.134 31.781,-60.336 27.073,-12.202 56.738,-4.973 66.256,16.146 0.527,1.225 1.141,2.441 1.667,3.704 5.431,13.115 2.204,34.155 0.126,47.893 -1.731,11.446 -3.909,23.295 -4.371,34.857 -0.354,8.836 0.26,19.743 6.598,26.593 C -0.653,-0.632 -0.332,-0.31 0,0"
             style="fill:#fff394;fill-opacity:1;fill-rule:evenodd;stroke:none"
             id="path1858" />
        </g>
        <g
           id="g1860"
           transform="translate(655.4521,646.6665)">
          <path
             d="m 0,0 c 3.014,-15.573 15.519,-30.845 34.03,-39.189 18.515,-8.345 38.237,-7.6 51.902,0.456 -7.873,12.78 -20.843,24.261 -37.397,31.721 C 31.982,0.45 14.792,2.566 0,0"
             style="fill:#ffef73;fill-opacity:1;fill-rule:evenodd;stroke:none"
             id="path1862" />
        </g>
        <g
           id="g1864"
           transform="translate(680.0176,612.667)">
          <path
             d="M 0,0 C 2.69,-1.767 5.566,-3.373 8.608,-4.792 16.623,11.521 24.724,25.22 32.383,36.951 43.833,54.486 29.902,60.989 20.759,44.261 12.864,29.816 5.929,15.211 0,0"
             style="fill:#f5ac00;fill-opacity:1;fill-rule:evenodd;stroke:none"
             id="path1866" />
        </g>
        <g
           id="g1868"
           transform="translate(734.2627,583.0557)">
          <path
             d="m 0,0 c -17.838,-25.842 -39.361,-54.522 -49.681,-71.976 -7.732,-13.082 -25.66,-18.614 -43.366,-10.632 -9.712,4.376 -16.429,11.498 -19.737,19.42 14.281,-16.485 41.164,-17.792 58.288,5.563 C -37.372,-34.27 -20.648,-23.191 0,0"
             style="fill:#e3dfbd;fill-opacity:1;fill-rule:evenodd;stroke:none"
             id="path1870" />
        </g>
        <g
           id="g1872"
           transform="translate(627.9512,549.2227)">
          <path
             d="M 0,0 19.829,77.293 26.747,66.522 Z"
             style="fill:#ffffff;fill-opacity:1;fill-rule:evenodd;stroke:none"
             id="path1874" />
        </g>
        <g
           id="g1876"
           transform="translate(352.1694,800.0132)">
          <path
             d="m 0,0 c 34.45,-12.14 -5.063,-93.394 10.979,-130.93 13.205,-30.901 69.433,-99.534 89.65,-132.879 9.167,-15.121 30.101,-21.328 50.601,-11.812 20.502,9.516 29.303,29.521 23.64,46.275 -12.196,36.073 -29.537,125.209 -43.63,154.239 C 110.132,-31.62 33.208,15.417 0,0"
             style="fill:#fffad6;fill-opacity:1;fill-rule:evenodd;stroke:none"
             id="path1878" />
        </g>
        <g
           id="g1880"
           transform="translate(361.2637,798.8608)">
          <path
             d="m 0,0 c 9.557,1.474 20.592,-0.942 29.035,-3.658 16.086,-5.179 32.038,-14.128 45.703,-24.002 16.571,-11.969 35.045,-29.298 44.079,-47.909 0.699,-1.442 1.282,-2.937 1.969,-4.354 11.352,-24.454 -4.858,-56.072 -36.204,-70.624 -31.344,-14.548 -65.957,-6.52 -77.308,17.931 -0.628,1.421 -1.361,2.83 -1.986,4.293 -6.492,15.19 -3.007,39.717 -0.767,55.729 1.868,13.34 4.247,27.156 4.638,40.616 C 9.454,-21.688 8.6,-9.006 1.135,-1.116 0.767,-0.726 0.386,-0.355 0,0"
             style="fill:#fff394;fill-opacity:1;fill-rule:evenodd;stroke:none"
             id="path1882" />
        </g>
        <g
           id="g1884"
           transform="translate(484.9409,694.3594)">
          <path
             d="m 0,0 c -3.307,-18.163 -17.66,-36.095 -39.095,-46.046 -21.432,-9.949 -44.395,-9.338 -60.401,-0.139 8.999,14.976 23.942,28.502 43.107,37.397 C -37.219,0.109 -17.246,2.795 0,0"
             style="fill:#ffef73;fill-opacity:1;fill-rule:evenodd;stroke:none"
             id="path1886" />
        </g>
        <g
           id="g1888"
           transform="translate(456.7949,654.478)">
          <path
             d="m 0,0 c -3.108,-2.09 -6.434,-3.997 -9.953,-5.689 -9.538,18.878 -19.142,34.72 -28.206,48.269 -13.552,20.258 2.574,28.005 13.429,8.658 C -15.353,34.531 -7.094,17.623 0,0"
             style="fill:#f5ac00;fill-opacity:1;fill-rule:evenodd;stroke:none"
             id="path1890" />
        </g>
        <g
           id="g1892"
           transform="translate(394.0557,619.3193)">
          <path
             d="m 0,0 c 21.093,-29.843 46.508,-62.936 58.743,-83.115 9.167,-15.121 30.101,-21.328 50.601,-11.812 11.243,5.219 18.966,13.594 22.717,22.856 C 115.654,-91.442 84.389,-93.31 64.162,-66.354 43.932,-39.399 24.327,-26.72 0,0"
             style="fill:#e3dfbd;fill-opacity:1;fill-rule:evenodd;stroke:none"
             id="path1894" />
        </g>
        <g
           id="g1896"
           transform="translate(518.2041,581.3252)">
          <path
             d="m 0,0 -24.077,89.684 -7.907,-12.62 z"
             style="fill:#ffffff;fill-opacity:1;fill-rule:evenodd;stroke:none"
             id="path1898" />
        </g>
        <g
           id="g1900"
           transform="translate(626.2715,646.3218)">
          <path
             d="M 0,0 C -22.496,-76.357 -41.252,-157.787 -55.191,-241.934 -68.535,-322.506 -77.46,-405.606 -81.014,-489.16 l 15.482,-0.606 c 3.523,82.834 12.384,165.305 25.642,245.344 13.826,83.467 32.437,164.265 54.766,240.048 z"
             style="fill:#556b41;fill-opacity:1;fill-rule:evenodd;stroke:none"
             id="path1902" />
        </g>
        <path
           d="m 563.588,234.01 h 13.16 v 472.43 h -13.16 z"
           style="fill:#6e8559;fill-opacity:1;fill-rule:evenodd;stroke:none"
           id="path1904" />
        <g
           id="g1906"
           transform="translate(592.4131,986.959)">
          <path
             d="m 0,0 c -27.536,-26.887 46.271,-87.013 47.593,-130.003 1.088,-35.389 -22.201,-125.928 -26.729,-166.765 -2.052,-18.518 -19.304,-33.738 -43.122,-33.738 -23.813,0 -41.102,15.216 -43.12,33.738 -4.348,39.888 -27.317,132.765 -26.729,166.765 C -91.226,-79.08 -38.575,0 0,0"
             style="fill:#fffad6;fill-opacity:1;fill-rule:evenodd;stroke:none"
             id="path1908" />
        </g>
        <g
           id="g1910"
           transform="translate(584.2358,981.8228)">
          <path
             d="m 0,0 c -9.789,-2.832 -19.264,-10.037 -26.126,-16.379 -13.078,-12.085 -24.353,-27.717 -33.032,-43.212 -10.527,-18.792 -20.494,-43.548 -20.871,-65.344 -0.03,-1.688 0.077,-3.375 0.048,-5.035 0,-28.404 29.519,-51.433 65.928,-51.433 36.412,0 65.931,23.029 65.931,51.433 -0.03,1.634 0.044,3.309 -0.006,4.984 -0.536,17.396 -14.745,39.29 -23.99,53.6 -7.702,11.92 -16.109,24.07 -22.45,36.761 -4.847,9.702 -9.656,22.201 -6.023,33.054 C -0.412,-1.037 -0.214,-0.513 0,0"
             style="fill:#fff394;fill-opacity:1;fill-rule:evenodd;stroke:none"
             id="path1912" />
        </g>
        <g
           id="g1914"
           transform="translate(512.3936,827.082)">
          <path
             d="m 0,0 c 11.219,-15.892 32.89,-26.662 57.789,-26.662 24.899,0 46.573,10.77 57.79,26.662 C 100.337,10.319 80.054,16.617 57.789,16.617 35.525,16.617 15.244,10.322 0,0"
             style="fill:#ffef73;fill-opacity:1;fill-rule:evenodd;stroke:none"
             id="path1916" />
        </g>
        <g
           id="g1918"
           transform="translate(556.9868,801.4526)">
          <path
             d="m 0,0 c 3.898,-0.619 7.921,-0.966 12.038,-1.019 0.74,22.275 2.891,41.671 5.543,58.642 C 21.543,82.993 2.695,83.246 0.904,59.94 -0.647,39.813 -1.037,19.992 0,0"
             style="fill:#f5ac00;fill-opacity:1;fill-rule:evenodd;stroke:none"
             id="path1920" />
        </g>
        <g
           id="g1922"
           transform="translate(632.5449,795.6865)">
          <path
             d="m 0,0 c -6.92,-37.876 -16.528,-80.785 -19.268,-105.495 -2.051,-18.519 -19.304,-33.739 -43.122,-33.739 -13.061,0 -24.156,4.577 -31.849,11.768 24.276,-11.234 54.981,0.848 62.358,35.585 C -24.507,-57.145 -11.394,-36.33 0,0"
             style="fill:#e3dfbd;fill-opacity:1;fill-rule:evenodd;stroke:none"
             id="path1924" />
        </g>
        <g
           id="g1926"
           transform="translate(530.7515,704.2954)">
          <path
             d="M 0,0 -16.78,96.394 -3.618,87.84 Z"
             style="fill:#ffffff;fill-opacity:1;fill-rule:evenodd;stroke:none"
             id="path1928" />
        </g>
        <g
           id="g1930"
           transform="translate(465.0752,449.0391)">
          <path
             d="m 0,0 c 46.358,-26.147 84.087,-62.276 115.708,-105.463 31.766,-43.381 57.385,-93.892 79.402,-148.574 l 9.864,3.99 c -22.327,55.453 -48.35,106.732 -80.673,150.875 C 91.833,-54.827 53.016,-17.686 5.222,9.271 Z"
             style="fill:#3c4d2c;fill-opacity:1;fill-rule:evenodd;stroke:none"
             id="path1932" />
        </g>
        <g
           id="g1934"
           transform="translate(309.6533,541.8506)">
          <path
             d="m 0,0 c 25.015,5.055 30.412,-57.839 53.478,-74.614 18.99,-13.807 77.302,-34.844 101.372,-47.61 10.917,-5.787 25.696,-2.012 34.589,11.039 8.889,13.051 7.004,28.205 -2.393,36.228 -20.238,17.272 -62.563,64.534 -81.414,76.903 C 77.394,20.474 14.402,21.143 0,0"
             style="fill:#fffad6;fill-opacity:1;fill-rule:evenodd;stroke:none"
             id="path1936" />
        </g>
        <g
           id="g1938"
           transform="translate(315.522,544.416)">
          <path
             d="m 0,0 c 5.205,4.308 12.69,6.81 18.728,8.204 11.507,2.655 24.283,2.998 36.014,1.97 14.23,-1.246 31.517,-5.025 43.604,-12.953 0.934,-0.618 1.82,-1.303 2.739,-1.906 15.567,-10.608 17.167,-35.38 3.575,-55.334 -13.592,-19.956 -37.232,-27.536 -52.801,-16.933 -0.882,0.627 -1.829,1.21 -2.729,1.863 -9.334,6.79 -16.026,22.751 -20.416,33.158 -3.658,8.672 -7.18,17.814 -11.767,26.026 C 13.44,-9.625 8.383,-2.321 1.08,-0.263 0.72,-0.162 0.36,-0.074 0,0"
             style="fill:#fff394;fill-opacity:1;fill-rule:evenodd;stroke:none"
             id="path1940" />
        </g>
        <g
           id="g1942"
           transform="translate(427.1431,526.0225)">
          <path
             d="m 0,0 c 4.523,-12.083 2.334,-27.982 -6.961,-41.625 -9.296,-13.649 -23.287,-21.505 -36.185,-21.719 0.035,12.209 4.155,25.672 12.466,37.874 C -22.368,-13.267 -11.348,-4.503 0,0"
             style="fill:#ffef73;fill-opacity:1;fill-rule:evenodd;stroke:none"
             id="path1944" />
        </g>
        <g
           id="g1946"
           transform="translate(424.543,492.0137)">
          <path
             d="m 0,0 c -1.116,-2.367 -2.429,-4.701 -3.933,-6.979 -12.487,7.913 -23.918,13.974 -34.21,18.858 -15.382,7.297 -8.485,17.722 4.957,10.002 C -21.58,15.218 -10.568,8.032 0,0"
             style="fill:#f5ac00;fill-opacity:1;fill-rule:evenodd;stroke:none"
             id="path1948" />
        </g>
        <g
           id="g1950"
           transform="translate(399.4961,448.4521)">
          <path
             d="m 0,0 c 23.342,-10.35 50.443,-21.102 65.007,-28.825 10.915,-5.787 25.696,-2.013 34.589,11.039 4.875,7.158 6.509,14.946 5.441,21.848 -2.905,-17.5 -20.991,-29.815 -42.782,-20.888 C 40.466,-7.903 24.164,-7.316 0,0"
             style="fill:#e3dfbd;fill-opacity:1;fill-rule:evenodd;stroke:none"
             id="path1952" />
        </g>
        <g
           id="g1954"
           transform="translate(487.582,470.1191)">
          <path
             d="M 0,0 -46.562,45.183 -46.787,34.777 Z"
             style="fill:#ffffff;fill-opacity:1;fill-rule:evenodd;stroke:none"
             id="path1956" />
        </g>
        <g
           id="g1958"
           transform="translate(549.8286,398.457)">
          <path
             d="m 0,0 h 45.78 c 4.049,0 7.357,-3.307 7.357,-7.355 0,-4.048 -3.308,-7.36 -7.357,-7.36 H 0 c -4.043,0 -7.355,3.312 -7.355,7.36 C -7.355,-3.307 -4.043,0 0,0"
             style="fill:#e39400;fill-opacity:1;fill-rule:evenodd;stroke:none"
             id="path1960" />
        </g>
        <g
           id="g1962"
           transform="translate(548.4941,389.5723)">
          <path
             d="m 0,0 43.816,-13.269 c 3.873,-1.17 6.081,-5.298 4.91,-9.17 v -0.003 c -1.174,-3.872 -5.302,-6.08 -9.174,-4.91 l -43.816,13.268 c -3.873,1.174 -6.081,5.301 -4.909,9.173 v 0.003 C -8,-1.036 -3.872,1.174 0,0"
             style="fill:#ffbb00;fill-opacity:1;fill-rule:evenodd;stroke:none"
             id="path1964" />
        </g>
        <g
           id="g1966"
           transform="translate(549.1606,379.8574)">
          <path
             d="m 0,0 44.334,11.42 c 3.918,1.012 7.949,-1.37 8.958,-5.288 V 6.13 c 1.01,-3.92 -1.369,-7.948 -5.289,-8.96 L 3.671,-14.248 c -3.919,-1.009 -7.951,1.369 -8.96,5.288 v 0.003 C -6.297,-5.04 -3.917,-1.009 0,0"
             style="fill:#ffcc00;fill-opacity:1;fill-rule:evenodd;stroke:none"
             id="path1968" />
        </g>
      </g>
    </g>
  </g>
</svg>
